<?xml version="1.0" encoding="UTF-8"?>
<svg version="1.1" xmlns="http://www.w3.org/2000/svg" width="512" height="512">
<path d="M0 0 C1.04072474 -0.00445784 2.08144947 -0.00891569 3.15371132 -0.01350862 C4.87443887 -0.01323207 4.87443887 -0.01323207 6.62992859 -0.01294994 C8.4536049 -0.01846498 8.4536049 -0.01846498 10.31412315 -0.02409142 C13.69519252 -0.03322103 17.07621333 -0.03782858 20.45729041 -0.04048073 C24.10166157 -0.04438327 27.74601867 -0.05396181 31.39038086 -0.0626936 C40.19608 -0.08246193 49.00178029 -0.09252578 57.80749607 -0.10142139 C61.9552372 -0.10580466 66.10297705 -0.11117146 70.25071716 -0.11641026 C84.04138423 -0.13342474 97.83205049 -0.14791774 111.62272644 -0.155159 C115.20203146 -0.15706887 118.78133648 -0.1589892 122.36064148 -0.16094494 C123.25025338 -0.16142868 124.13986527 -0.16191242 125.05643511 -0.16241082 C139.4595072 -0.17070664 153.86249611 -0.19603499 168.2655319 -0.22852562 C183.05641397 -0.26161871 197.84725382 -0.27960989 212.6381731 -0.28280324 C220.9411923 -0.28496651 229.24409029 -0.29368813 237.54707336 -0.31926441 C244.62034963 -0.34100238 251.69347527 -0.34900674 258.76678115 -0.33929763 C262.37325708 -0.33476152 265.97942242 -0.33659837 269.58585548 -0.35605907 C273.5034249 -0.3770152 277.42056966 -0.36667748 281.33818054 -0.35352612 C282.46748647 -0.36449536 283.59679239 -0.37546461 284.76031971 -0.38676625 C296.63754585 -0.29076166 306.30515007 3.35429376 314.67558289 11.84125233 C323.44593096 22.23006862 323.56777454 35.50975882 323.4460907 48.39911366 C323.44495985 50.09559064 323.44560071 51.79206957 323.44786072 53.48854542 C323.44899954 58.05392119 323.42562646 62.61886907 323.39756489 67.18414617 C323.37241113 71.97002807 323.37019829 76.75592182 323.36546326 81.54185963 C323.35307429 90.58675844 323.32030837 99.63146185 323.2800653 108.67627496 C323.23522001 118.98106854 323.21332858 129.28587188 323.19328356 139.59073889 C323.15157176 160.77200832 323.08129974 181.95310234 322.99198914 203.13422108 C323.54306147 203.13053391 324.0941338 203.12684673 324.66190529 203.12304783 C338.08303436 203.03463387 351.50411226 202.96873651 364.92547035 202.92697239 C371.41601538 202.90609649 377.90635023 202.87777805 384.39677429 202.83246326 C390.66022686 202.78900674 396.92347725 202.76508399 403.18706894 202.7547121 C405.57689471 202.74732048 407.96670941 202.73288647 410.35644913 202.71130085 C413.70346758 202.68227044 417.04965022 202.67826506 420.39677429 202.68011951 C421.3850824 202.66573841 422.3733905 202.65135731 423.39164734 202.63654041 C429.05672338 202.67051108 432.65604464 203.10507128 436.99198914 207.13422108 C439.89598953 211.82880599 440.42363699 215.82704287 440.37966919 221.226964 C440.3877475 222.42440996 440.3877475 222.42440996 440.395989 223.64604676 C440.41026008 226.31267329 440.40316677 228.97880278 440.39604187 231.64545155 C440.40174629 233.56124234 440.40871082 235.47702973 440.4168396 237.39281178 C440.43478889 242.5938271 440.43359796 247.79467384 440.42789721 252.99571085 C440.42480456 257.34632583 440.43089946 261.69690847 440.43693596 266.04751885 C440.45098857 276.32351728 440.44941685 286.59943261 440.43803406 296.87543201 C440.42658244 307.44650779 440.44057701 318.01732897 440.46743053 328.58837116 C440.48966236 337.68337718 440.49620721 346.77830376 440.49035412 355.873335 C440.48699752 361.2963969 440.48931149 366.71929609 440.50660515 372.14233494 C440.52218911 377.25274363 440.51799294 382.36277952 440.4993 387.4731741 C440.495644 389.33702433 440.49863402 391.20090287 440.50918579 393.06472683 C440.61974622 414.22970338 436.24998443 433.31883178 421.26664734 449.0556078 C406.98788714 463.32703929 389.46174233 470.40078894 369.35880107 470.54011339 C367.41840661 470.53109832 367.41840661 470.53109832 365.43881226 470.52190113 C364.01593524 470.52608417 362.59306157 470.53156696 361.17019397 470.53822094 C357.29684459 470.55256734 353.42370995 470.54846503 349.55034935 470.54105413 C345.35866543 470.53629771 341.16702632 470.5488541 336.97535706 470.55907154 C328.77746939 470.57621704 320.57965851 470.57710835 312.38175758 470.57185864 C305.71410016 470.56780752 299.04646533 470.56927165 292.37880898 470.5746069 C291.42769028 470.57535532 290.47657159 470.57610374 289.49663112 470.57687484 C287.56405776 470.57840641 285.6314844 470.57994476 283.69891105 470.58148981 C265.59883385 470.59519965 247.49879995 470.58978798 229.39872376 470.5783046 C212.86570826 470.56837532 196.33280473 470.58131032 179.7998065 470.60523879 C162.79487944 470.62966351 145.79000446 470.63922928 128.78506023 470.63258606 C119.24964537 470.62910114 109.71431656 470.63127767 100.17891502 470.64883709 C92.06114743 470.66360138 83.94352648 470.66413958 75.82576164 470.64676618 C71.69002811 470.63828819 67.55455608 470.63602751 63.41883659 470.65141773 C59.62189699 470.66537145 55.82544026 470.66036676 52.02852783 470.6411785 C50.02781337 470.63570475 48.02707365 470.64960032 46.02640742 470.6645326 C33.84036322 470.56695077 21.4440985 468.20817364 10.61698914 462.38422108 C9.95690857 462.03988026 9.296828 461.69553944 8.616745 461.34076405 C-8.84925898 451.94437439 -20.66125979 436.53346243 -27.21894836 418.02484608 C-29.81900303 408.49989334 -30.29775355 399.40119685 -30.2754364 389.57269764 C-30.27917779 388.00376766 -30.28378125 386.43483954 -30.28916705 384.86591434 C-30.30135144 380.57519434 -30.301142 376.28455257 -30.2987783 371.99381924 C-30.29836899 367.35843815 -30.30941991 362.72308177 -30.31889343 358.08771229 C-30.33547781 349.01513269 -30.34100176 339.94257908 -30.34211819 330.86998558 C-30.34306959 323.49521039 -30.34718445 316.12044376 -30.35351944 308.74567127 C-30.37112247 287.82714425 -30.38035942 266.90863772 -30.37885849 245.99010324 C-30.37877858 244.86332619 -30.37869867 243.73654914 -30.37861633 242.57562733 C-30.37853457 241.44747183 -30.37845281 240.31931634 -30.37836857 239.15697432 C-30.37755525 220.8640605 -30.39670693 202.57122893 -30.42489307 184.27833891 C-30.45362018 165.48586195 -30.46743355 146.69342511 -30.46570551 127.90092564 C-30.4650417 117.35402163 -30.47053057 106.80720393 -30.49206161 96.26031971 C-30.51027079 87.28336888 -30.51462264 78.30654352 -30.50104277 69.32958221 C-30.49451269 64.75108355 -30.49439755 60.17282563 -30.51174927 55.59434986 C-30.52748248 51.39978628 -30.52461397 47.20565431 -30.507181 43.01110125 C-30.50411173 41.49709842 -30.50774079 39.98306337 -30.51890115 38.46909857 C-30.60258593 26.30743916 -28.83793058 17.16417818 -20.30097961 8.11468983 C-14.5902622 3.18226439 -7.55380195 0.01499187 0 0 Z M-6.00801086 26.13422108 C-8.21312145 29.53503603 -8.26023204 32.37520031 -8.26527977 36.37855721 C-8.27172866 37.66961067 -8.27817755 38.96066414 -8.28482187 40.29084045 C-8.28187944 41.72685968 -8.27874399 43.16287854 -8.2754364 44.59889698 C-8.27917182 46.12196204 -8.2837729 47.64502519 -8.28916705 49.16808528 C-8.30142709 53.36009446 -8.30113302 57.55202401 -8.2987783 61.74404705 C-8.29837086 66.26306417 -8.30940267 70.78205551 -8.31889343 75.30106068 C-8.33552358 84.15956943 -8.34100399 93.01805156 -8.34211819 101.87657461 C-8.34306822 109.08077918 -8.34717629 116.28497496 -8.35351944 123.48917675 C-8.37114151 143.91978671 -8.38035743 164.35037565 -8.37885849 184.78099326 C-8.37877858 185.88296615 -8.37869867 186.98493905 -8.37861633 188.12030506 C-8.37853457 189.22362648 -8.37845281 190.3269479 -8.37836857 191.4637033 C-8.37755659 209.3235977 -8.39666945 227.18340757 -8.42489307 245.04327754 C-8.45365196 263.38697392 -8.46743154 281.73062914 -8.46570551 300.07434863 C-8.46504239 310.37054999 -8.47049992 320.66666287 -8.49206161 330.96284389 C-8.51031351 339.73485042 -8.51458833 348.50672842 -8.50104277 357.27874575 C-8.49453178 361.7504852 -8.49432764 366.22197839 -8.51174927 370.69369411 C-8.52756962 374.79685699 -8.52452589 378.89958022 -8.507181 383.00273295 C-8.50413055 384.47797346 -8.50766877 385.95324752 -8.51890115 387.42844842 C-8.64781205 405.57813467 -4.22961276 420.33987416 8.39433289 433.74359608 C25.21794204 449.22637623 44.83298661 448.71227609 66.397995 448.58832264 C69.15879756 448.58495629 71.91958667 448.58765497 74.6803894 448.59009266 C80.59793332 448.59217829 86.51529923 448.57975256 92.43279839 448.5571413 C100.9882134 448.52447184 109.54354337 448.51419911 118.09901399 448.50918934 C131.9835537 448.50045997 145.86799878 448.47390881 159.75248718 448.43597889 C173.23067251 448.39919747 186.70883203 448.37091582 200.1870575 448.35394764 C201.0194754 448.35289675 201.85189331 448.35184585 202.70953601 448.35076311 C206.88601628 448.34554252 211.06249674 448.3404878 215.23897731 448.3355155 C249.823382 448.29412699 284.4076768 448.2237433 318.99198914 448.13422108 C318.58474106 447.60149586 318.17749298 447.06877064 317.75790405 446.51990223 C317.22115555 445.81222706 316.68440704 445.10455189 316.13139343 444.37543201 C315.60039536 443.67770679 315.06939728 442.97998158 314.52230835 442.26111317 C312.26859646 439.1288242 310.51301382 435.83592612 308.80448914 432.38422108 C308.47513367 431.7577367 308.1457782 431.13125233 307.80644226 430.48578358 C302.34202533 419.57867702 301.55224867 408.45530182 301.60671997 396.4638567 C301.60270566 394.90756014 301.59737516 393.35126652 301.59085423 391.79497844 C301.57678628 387.54855207 301.58110733 383.30231846 301.58856738 379.05588281 C301.59332654 374.46489577 301.58072672 369.87395189 301.57020569 365.28297901 C301.55426331 357.33722409 301.54895152 349.39152011 301.55073357 341.44575024 C301.55312141 329.95002948 301.53710278 318.45438988 301.51628102 306.95869038 C301.48278912 288.29544547 301.46110439 269.63220784 301.44828796 250.96893787 C301.44751847 249.85308891 301.44674899 248.73723995 301.44595618 247.58757738 C301.44285368 243.06592632 301.43977087 238.54427524 301.43671614 234.02262415 C301.42817924 221.56429725 301.41727932 209.10597286 301.40531921 196.64764881 C301.4042512 195.53164898 301.40318318 194.41564915 301.40208279 193.26583114 C301.38399651 174.66427188 301.35801071 156.06272999 301.32718807 137.46118766 C301.30863244 125.99195342 301.29771822 114.52275815 301.29666615 103.05350868 C301.29556346 95.20057005 301.28762197 87.34765818 301.27428251 79.49473085 C301.26685849 74.96324117 301.26277398 70.43181001 301.26740074 65.90031528 C301.27159548 61.75235266 301.26666449 57.60450476 301.25449289 53.4565588 C301.25172531 51.9561323 301.25233795 50.45569495 301.25667398 48.95527216 C301.26209425 46.91490762 301.25402651 44.87452065 301.24532223 42.83416748 C301.24434407 41.13461372 301.24434407 41.13461372 301.24334615 39.40072554 C300.84893313 34.27513999 299.96748646 30.32063675 296.67948914 26.32172108 C292.59087838 22.99378209 289.11695055 21.88540573 283.88008976 21.87695217 C282.86713339 21.87050328 281.85417702 21.86405439 280.810525 21.85741007 C279.70469787 21.86050728 278.59887074 21.86360448 277.45953369 21.86679554 C276.27934833 21.86226443 275.09916297 21.85773331 273.88321441 21.85306489 C270.61099778 21.84259435 267.33891935 21.84109511 264.06669128 21.84345365 C260.53628139 21.84386185 257.00590426 21.83282239 253.47550964 21.82333851 C246.56060826 21.80672932 239.64574098 21.80122903 232.73082132 21.80011375 C227.11075397 21.79916338 221.49069787 21.79505362 215.87063408 21.7887125 C199.93801738 21.77110144 184.00542762 21.76187359 168.07280112 21.76337345 C166.78454357 21.76349332 166.78454357 21.76349332 165.47026062 21.76361561 C164.61037432 21.76369737 163.75048802 21.76377913 162.86454456 21.76386337 C148.92380512 21.76467656 134.98317366 21.74553034 121.04246546 21.71733887 C106.72953341 21.68862291 92.41665406 21.67479782 78.10369247 21.67652643 C70.06747022 21.67719071 62.0313612 21.67168175 53.99516487 21.65017033 C47.1541802 21.63197558 40.31336012 21.62759717 33.47236175 21.64118917 C29.98193416 21.64772715 26.49182248 21.64780656 23.00142479 21.63048267 C19.21780803 21.61511376 15.4350262 21.62428427 11.65142822 21.63974476 C9.99603361 21.62431407 9.99603361 21.62431407 8.30719668 21.60857165 C2.25601901 21.66337494 -1.48490829 21.94557277 -6.00801086 26.13422108 Z M322.99198914 226.13422108 C322.90457345 258.23772566 322.90457345 258.23772566 322.84550476 290.34125233 C322.82770977 303.43454994 322.80679957 316.5277896 322.76567078 329.62103748 C322.7357301 339.1571382 322.71640503 348.69319187 322.70972365 358.22933829 C322.70581932 363.27670565 322.69666963 368.32393841 322.67479897 373.37126255 C322.65436007 378.12691877 322.64817027 382.88238558 322.65266609 387.63808155 C322.6518442 389.37867864 322.64592281 391.11928239 322.63437271 392.85984135 C322.57885566 401.66154732 322.58372007 409.85363465 325.99198914 418.13422108 C326.27159894 418.8397027 326.55120874 419.54518433 326.83929157 420.27204418 C331.2579945 430.85251516 341.22929742 439.54045586 351.42948914 444.38422108 C364.38687015 449.7000697 376.58403916 449.17999432 389.55448914 444.13812733 C401.30472452 438.83216166 410.01806597 429.4751401 415.05058289 417.64593983 C417.3791705 411.01670715 418.11716952 404.64144534 418.11224365 397.61716175 C418.11309808 396.88107933 418.1139525 396.14499691 418.11483282 395.38660896 C418.11647387 392.93152355 418.11098884 390.47650717 418.10551453 388.02142811 C418.10523233 386.25701874 418.10539102 384.49260926 418.10595703 382.72819996 C418.10624375 377.94563962 418.10036731 373.16310441 418.09338307 368.38054991 C418.08712863 363.37973025 418.08654408 358.37891001 418.08535767 353.37808704 C418.08225052 343.91159325 418.07404543 334.44511102 418.06400818 324.97862232 C418.05073706 312.18423636 418.04534215 299.38984723 418.03950596 286.59545612 C418.03010514 266.44170245 418.01018209 246.28797317 417.99198914 226.13422108 C386.64198914 226.13422108 355.29198914 226.13422108 322.99198914 226.13422108 Z " fill="#000000" transform="translate(51.00801086425781,20.865778923034668)"/>
<path d="M0 0 C0.83331215 -0.00583219 1.6666243 -0.01166439 2.52518833 -0.01767331 C3.43548994 -0.01389399 4.34579155 -0.01011467 5.28367805 -0.00622082 C6.7402827 -0.01195914 6.7402827 -0.01195914 8.22631371 -0.01781338 C11.48898955 -0.02815437 14.75148977 -0.02414911 18.01417732 -0.02018261 C20.34983165 -0.02452849 22.68548456 -0.02971122 25.02113533 -0.03567028 C31.37235446 -0.0490853 37.72351416 -0.04963613 44.0747447 -0.04710698 C50.0429337 -0.04590387 56.01111263 -0.05211117 61.97929861 -0.05754044 C74.52274633 -0.06841918 87.06616717 -0.06625202 99.60961641 -0.06015559 C111.08342709 -0.0549872 122.55715284 -0.06623921 134.03094672 -0.08525381 C145.81261966 -0.10462891 157.59425242 -0.11288872 169.3759414 -0.10913056 C175.99028621 -0.10731543 182.60455326 -0.10997675 189.21888542 -0.1238451 C195.43885399 -0.13639798 201.65865236 -0.1345033 207.87861824 -0.12143421 C210.16270822 -0.11906329 212.44681009 -0.12182147 214.73088646 -0.13005733 C217.84666425 -0.14048276 220.96186651 -0.13245757 224.07762337 -0.11974621 C224.98346353 -0.12712049 225.8893037 -0.13449478 226.82259357 -0.14209253 C233.26686098 -0.08670867 237.38307783 1.23401182 242.43263435 5.44197559 C247.83623967 11.84098189 249.40436084 17.54331521 249.34108162 25.81648731 C249.34969719 26.73793537 249.35831276 27.65938343 249.36718941 28.60875416 C249.38976535 31.63418185 249.38312505 34.65867677 249.3740406 37.68416309 C249.37928042 39.8011194 249.38555821 41.91807337 249.39282417 44.03502369 C249.40321339 48.4648944 249.39868882 52.8944436 249.38405037 57.32429981 C249.36687787 62.98228403 249.39034734 68.63925124 249.42553997 74.297122 C249.44757384 78.66739515 249.44605774 83.03742728 249.43777466 87.40773869 C249.43695818 89.49279997 249.44376319 91.57787949 249.45854568 93.66288853 C249.58821895 115.26476378 249.58821895 115.26476378 243.80763435 122.25447559 C239.63634983 126.14372262 235.50261321 128.37431977 229.75952053 128.38869667 C228.93291622 128.39315451 228.10631192 128.39761236 227.254659 128.40220529 C225.8927201 128.40192874 225.8927201 128.40192874 224.50326729 128.40164661 C223.53854663 128.4053233 222.57382597 128.40899999 221.57987136 128.41278809 C218.33262623 128.42384089 215.08541307 128.42767148 211.83815193 128.43147755 C209.51574285 128.43774099 207.19333478 128.44438768 204.87092781 128.45139027 C198.55052543 128.46881094 192.23013062 128.47935494 185.90971017 128.4875958 C181.96226383 128.49274367 178.01481986 128.4988195 174.06737518 128.50510693 C163.13586946 128.52197779 152.20436583 128.53661257 141.27284908 128.54385567 C138.43638101 128.54576553 135.59991294 128.54768586 132.7634449 128.54964161 C131.70597383 128.55036722 131.70597383 128.55036722 130.62713971 128.55110749 C119.20956577 128.55940595 107.79209667 128.58473985 96.3745685 128.61722229 C84.64942412 128.65030759 72.92433298 128.66830577 61.19914168 128.67149991 C54.61709541 128.67385225 48.03521482 128.68283697 41.45321274 128.70796108 C35.26031351 128.73121768 29.06768933 128.73548454 22.87475777 128.7251997 C20.60278789 128.72470365 18.33080459 128.7310444 16.05887604 128.74475574 C12.95456057 128.76244109 9.85123576 128.75538438 6.74691963 128.74222279 C5.85011398 128.75319203 4.95330832 128.76416128 4.02932674 128.77546293 C-2.78862752 128.70578554 -8.31490008 127.09918064 -13.2509594 122.21931934 C-13.93351799 121.21578419 -13.93351799 121.21578419 -14.62986565 120.19197559 C-15.33949455 119.18457325 -15.33949455 119.18457325 -16.0634594 118.15681934 C-17.85276835 115.14161706 -18.31958622 112.62158215 -18.34626579 109.1891222 C-18.35486626 108.36355824 -18.36346672 107.53799427 -18.3723278 106.68741322 C-18.37658775 105.78504429 -18.3808477 104.88267536 -18.38523674 103.95296192 C-18.39341423 102.9997707 -18.40159172 102.04657948 -18.41001701 101.06450367 C-18.43485974 97.90517777 -18.45138527 94.74589682 -18.46580315 91.58650684 C-18.47378866 89.96727597 -18.47378866 89.96727597 -18.4819355 88.31533337 C-18.5086637 82.60031183 -18.52803867 76.8853121 -18.5424633 71.17024708 C-18.55909966 65.27326802 -18.60387044 59.37684906 -18.65483475 53.48008156 C-18.68852643 48.94094688 -18.70004294 44.40194477 -18.70569038 39.86269665 C-18.71239871 37.68942649 -18.72760979 35.51616493 -18.75158119 33.34301662 C-18.78327247 30.29587061 -18.78326306 27.25023013 -18.77586174 24.20296192 C-18.79226707 23.31071415 -18.80867241 22.41846638 -18.82557487 21.49918079 C-18.76345986 15.22932466 -17.14836302 11.13320835 -13.19236565 6.25447559 C-9.18832785 2.54341617 -5.54658499 0.00669388 0 0 Z M3.80763435 22.25447559 C3.80763435 49.97447559 3.80763435 77.69447559 3.80763435 106.25447559 C77.39763435 106.25447559 150.98763435 106.25447559 226.80763435 106.25447559 C226.80763435 78.53447559 226.80763435 50.81447559 226.80763435 22.25447559 C153.21763435 22.25447559 79.62763435 22.25447559 3.80763435 22.25447559 Z " fill="#000000" transform="translate(82.1923656463623,63.745524406433105)"/>
<path d="M0 0 C0.82347427 -0.00832352 1.64694855 -0.01664703 2.49537659 -0.02522278 C5.21221683 -0.04927568 7.92881658 -0.0580904 10.64575195 -0.06469727 C12.54279143 -0.07366926 14.43983021 -0.0827912 16.33686829 -0.09205627 C20.31378902 -0.10853751 24.29062568 -0.11624445 28.26757812 -0.11914062 C33.3438128 -0.12451445 38.41924795 -0.16215685 43.49525738 -0.20788479 C47.4151339 -0.23775042 51.33482043 -0.24486629 55.2548008 -0.24586678 C57.12497419 -0.2500525 58.99514901 -0.26242006 60.86520958 -0.28338432 C80.40905309 -0.48498786 80.40905309 -0.48498786 87.6965332 5.30639648 C92.70310722 10.65052341 93.84645354 15.55837535 93.90527344 22.66430664 C93.91505722 23.41106659 93.924841 24.15782654 93.93492126 24.92721558 C93.96484533 27.39994537 93.98625647 29.87262099 94.00512695 32.34545898 C94.01169878 33.19201427 94.01827061 34.03856956 94.02504158 34.91077805 C94.05762772 39.39501016 94.08207616 43.87921866 94.1015625 48.36352539 C94.11934659 52.06505165 94.15412033 55.76581191 94.20410156 59.46704102 C94.26448842 63.94450748 94.29506373 68.42126606 94.30473518 72.89912033 C94.31326234 74.59991061 94.33201258 76.30068339 94.36147881 78.00123978 C94.62430057 94.03734222 94.62430057 94.03734222 89.29847717 100.72055054 C83.59818366 106.36356149 78.26387902 107.4573928 70.40478516 107.49926758 C69.55888321 107.50744507 68.71298126 107.51562256 67.84144592 107.52404785 C65.03924259 107.54887895 62.23708991 107.56541359 59.43481445 107.57983398 C58.47668539 107.58515766 57.51855633 107.59048134 56.53139305 107.59596634 C51.45827408 107.62269022 46.38517963 107.64206606 41.31201172 107.65649414 C37.11875555 107.6698249 32.92598697 107.69766277 28.73291016 107.73852539 C23.66545368 107.78790735 18.59843899 107.81262227 13.53075218 107.81972122 C11.60309211 107.82642378 9.6754415 107.84161986 7.74791908 107.86561203 C5.04317923 107.89735281 2.34013233 107.89728701 -0.36474609 107.88989258 C-1.15413574 107.90629791 -1.94352539 107.92270325 -2.75683594 107.93960571 C-9.38232956 107.8658358 -14.037488 105.38419869 -18.83446789 100.86360741 C-23.63426494 95.52557548 -24.55088921 90.16074869 -24.59399414 83.17456055 C-24.60071136 82.48749023 -24.60742859 81.80041992 -24.61434937 81.0925293 C-24.63324566 78.83561843 -24.63724959 76.5790064 -24.6394043 74.32202148 C-24.64583921 72.74029421 -24.65256808 71.1585681 -24.65957642 69.57684326 C-24.67152912 66.26498662 -24.67525943 62.9532341 -24.67407227 59.64135742 C-24.67386946 55.42053964 -24.70114043 51.20039805 -24.73561668 46.97974014 C-24.75797945 43.71267702 -24.76190692 40.44577405 -24.76085281 37.17864227 C-24.76319588 35.62387518 -24.77194561 34.0691028 -24.78751755 32.51441193 C-24.96068608 13.4360049 -24.96068608 13.4360049 -18.55331421 6.37872314 C-12.92449776 1.13360403 -7.58947912 0.00654727 0 0 Z M-2.3034668 22.30639648 C-2.3034668 43.09639648 -2.3034668 63.88639648 -2.3034668 85.30639648 C22.1165332 85.30639648 46.5365332 85.30639648 71.6965332 85.30639648 C71.6965332 64.51639648 71.6965332 43.72639648 71.6965332 22.30639648 C47.2765332 22.30639648 22.8565332 22.30639648 -2.3034668 22.30639648 Z " fill="#000000" transform="translate(226.303466796875,308.693603515625)"/>
<path d="M0 0 C0.88158098 -0.00507454 1.76316197 -0.01014909 2.67145753 -0.0153774 C4.13319481 -0.01612404 4.13319481 -0.01612404 5.62446213 -0.01688576 C6.65507633 -0.02126801 7.68569053 -0.02565027 8.74753547 -0.03016531 C12.22366369 -0.04358999 15.69976653 -0.04974039 19.17591476 -0.0558567 C21.65905498 -0.06375474 24.14219404 -0.0720235 26.62533188 -0.08063698 C34.09362648 -0.10462336 41.56191691 -0.11978963 49.03023684 -0.13269705 C51.13916131 -0.13640827 53.24808512 -0.14038156 55.35700893 -0.14444971 C68.44938947 -0.16968565 81.54177104 -0.19174169 94.63417053 -0.20417786 C97.66745381 -0.20710762 100.70073704 -0.21006927 103.73402023 -0.21308327 C104.4879409 -0.21382932 105.24186158 -0.21457537 106.01862833 -0.21534403 C118.23302071 -0.22799896 130.44726757 -0.26122318 142.66159192 -0.3028851 C155.19804276 -0.34529568 167.73441909 -0.36887187 180.2709415 -0.37409842 C187.31127737 -0.37751357 194.35138584 -0.3892806 201.39165115 -0.42220116 C208.01379556 -0.45311554 214.63561517 -0.45862343 221.25784492 -0.4468174 C223.69030293 -0.44659596 226.1227789 -0.45495834 228.55517387 -0.47247124 C231.8727786 -0.49505998 235.18893141 -0.48691438 238.50654221 -0.47098732 C239.95489515 -0.49181045 239.95489515 -0.49181045 241.43250775 -0.51305425 C245.8633655 -0.46054064 248.8759742 -0.29187753 252.4015274 2.5500145 C255.69612145 6.0749602 256.21427906 8.16814581 256.17884445 13.03154564 C255.54365131 16.75294892 253.47967929 18.54014288 250.81946945 21.13701439 C248.51235886 22.29056969 247.20584262 22.26523045 244.6389389 22.27123547 C243.31656743 22.27792223 243.31656743 22.27792223 241.96748137 22.28474408 C240.99298986 22.28455972 240.01849834 22.28437536 239.01447678 22.28418541 C237.46855547 22.28970044 237.46855547 22.28970044 235.89140344 22.29532689 C232.41527206 22.30639778 228.93917054 22.31021332 225.46302414 22.31401634 C222.97988413 22.32027839 220.49674506 22.32692496 218.01360703 22.33392906 C210.54530857 22.35318179 203.07701805 22.363761 195.60870206 22.37265685 C192.09289993 22.37703847 188.57709931 22.38240562 185.06129837 22.38764572 C173.37579155 22.40465922 161.69028568 22.41915363 150.00476837 22.42639446 C146.97148513 22.4283044 143.93820189 22.43022473 140.90491867 22.4321804 C139.77403766 22.43290601 139.77403766 22.43290601 138.62031057 22.43364628 C126.40594249 22.44194745 114.19167231 22.46728523 101.97734699 22.49976108 C89.44089515 22.53282199 76.90449308 22.55084236 64.36799741 22.5540387 C57.32769912 22.55620475 50.28754359 22.56496709 43.24728775 22.59049988 C36.62516969 22.61446051 30.00326258 22.61803862 23.38109398 22.60773849 C20.94864231 22.60724153 18.51617825 22.61360903 16.08376503 22.62729454 C12.76633122 22.64491714 9.44983022 22.63795404 6.1323967 22.62476158 C5.16682807 22.63573083 4.20125944 22.64670007 3.20643115 22.65800172 C-2.55021259 22.6026245 -5.78158856 21.94754968 -10.18053055 18.13701439 C-12.03779671 14.42248207 -11.76554144 10.18122014 -11.18053055 6.13701439 C-7.82568477 1.81102904 -5.37853618 0.01639602 0 0 Z " fill="#000000" transform="translate(75.1805305480957,212.8629856109619)"/>
<path d="M0 0 C0.64746585 -0.00438225 1.29493169 -0.00876451 1.96201771 -0.01327956 C4.14144468 -0.02668263 6.32083119 -0.03284975 8.50028992 -0.03897095 C10.05895674 -0.04687069 11.61762174 -0.05513956 13.17628479 -0.06375122 C18.30339304 -0.08998471 23.43050952 -0.10527951 28.55766296 -0.11953735 C30.32140292 -0.12489636 32.08514283 -0.13027387 33.84888268 -0.13566971 C41.18430148 -0.15729979 48.51971808 -0.17603739 55.85516071 -0.1872921 C66.37461795 -0.20353718 76.89370615 -0.23672685 87.41302425 -0.29369295 C94.80586294 -0.33236583 102.19860283 -0.35192159 109.59154004 -0.35721266 C114.00893103 -0.3608696 118.42592855 -0.37292685 122.84321022 -0.4053154 C126.99902273 -0.43534988 131.15420273 -0.4417247 135.31010056 -0.42993164 C136.83511778 -0.42971052 138.36016395 -0.43804763 139.88508034 -0.45558548 C141.96842083 -0.47824088 144.04946057 -0.47000334 146.1328125 -0.45410156 C147.29812657 -0.45741171 148.46344065 -0.46072186 149.66406727 -0.46413231 C153.69047978 0.34045964 155.17272573 2.04232243 157.75688171 5.15390015 C159.35995095 8.36003862 159.24428632 11.67530012 158.75688171 15.15390015 C156.59036024 18.71318542 154.60771598 20.64526514 150.75688171 22.15390015 C147.85796452 22.40837574 147.85796452 22.40837574 144.42510986 22.41459656 C143.12264313 22.42168137 141.82017639 22.42876617 140.47824097 22.43606567 C139.03669704 22.4337719 137.59515344 22.4312622 136.15361023 22.42855835 C134.63405608 22.43290599 133.11450413 22.43808931 131.59495544 22.44404602 C127.46893043 22.45744156 123.34299699 22.45801409 119.21695447 22.45548272 C115.77255259 22.4544134 112.32816927 22.45929536 108.88377136 22.46408814 C100.75804599 22.4751852 92.63236685 22.47561959 84.50663757 22.46957397 C76.12349466 22.46353276 67.74051953 22.47584845 59.35740525 22.49714404 C52.15984291 22.51475578 44.96233399 22.52076209 37.7647509 22.5175063 C33.46600053 22.51569264 29.16736985 22.51833781 24.86863899 22.53222084 C20.82616085 22.54478768 16.78394441 22.54286605 12.74147034 22.52980995 C11.25840098 22.52744213 9.77531326 22.53018626 8.29226494 22.53843307 C6.2667464 22.5488837 4.24115345 22.53900661 2.21563721 22.52812195 C1.08241815 22.52828969 -0.05080091 22.52845743 -1.21835995 22.52863026 C-5.32650946 22.01968139 -7.81822652 20.25764563 -11.02827454 17.77108765 C-13.15703397 14.937305 -12.70117516 12.0200295 -12.60639954 8.6031189 C-12.10154843 5.19944531 -10.75630321 3.44533346 -8.24311829 1.15390015 C-5.4447108 -0.2453036 -3.13189944 0.01499067 0 0 Z " fill="#000000" transform="translate(76.24311828613281,255.84609985351563)"/>
<path d="M0 0 C0.86915039 -0.00860046 1.73830078 -0.01720093 2.63378906 -0.02606201 C3.58964905 -0.03032196 4.54550903 -0.03458191 5.53033447 -0.03897095 C6.53536011 -0.04714844 7.54038574 -0.05532593 8.5758667 -0.06375122 C11.9125712 -0.08862924 15.24923308 -0.10512764 18.58599854 -0.11953735 C20.29309368 -0.12752287 20.29309368 -0.12752287 22.0346756 -0.13566971 C28.05861234 -0.16241205 34.08252827 -0.1817833 40.10650635 -0.19619751 C46.33215107 -0.21284579 52.55726647 -0.25762263 58.78271103 -0.30856895 C63.56624975 -0.34220858 68.34966236 -0.35377142 73.13330841 -0.35942459 C75.42824599 -0.36614635 77.72317501 -0.38139224 80.01799774 -0.4053154 C83.23088319 -0.43689738 86.44233486 -0.43701361 89.65533447 -0.42959595 C91.07697906 -0.45420395 91.07697906 -0.45420395 92.52734375 -0.47930908 C96.92880743 -0.43772314 99.92125746 -0.26374296 103.42980957 2.54998779 C106.4976639 5.84851687 106.87670944 7.59311814 107.09381104 11.93515015 C106.70801633 15.46952749 105.15512821 17.53046427 102.85162354 20.15390015 C99.75406348 22.21894018 99.08985501 22.40578586 95.58299255 22.42132568 C94.7124675 22.42985565 93.84194244 22.43838562 92.94503784 22.44717407 C91.51664078 22.44581451 91.51664078 22.44581451 90.05938721 22.44442749 C89.05421555 22.45114471 88.04904388 22.45786194 87.01341248 22.46478271 C83.68208913 22.48381957 80.35096668 22.48768996 77.01959229 22.48983765 C74.7065472 22.49626219 72.39350295 22.50299029 70.08045959 22.51000977 C65.22738766 22.52199718 60.37438697 22.52568914 55.52130127 22.52450562 C49.3035869 22.52430248 43.08632988 22.55159312 36.86872387 22.58605003 C32.0894613 22.60829319 27.31030917 22.61234392 22.53100014 22.61128616 C20.23887876 22.61364646 17.94675454 22.62249397 15.65468407 22.6379509 C12.44681222 22.6575556 9.2399314 22.65179365 6.03204346 22.63973999 C5.08585144 22.650979 4.13965942 22.66221802 3.16479492 22.67379761 C-2.56608273 22.61910245 -5.7650917 21.93812726 -10.14837646 18.15390015 C-12.00564262 14.43936783 -11.73338736 10.19810589 -11.14837646 6.15390015 C-7.80828864 1.84694479 -5.35685593 0.0394166 0 0 Z " fill="#000000" transform="translate(75.14837646484375,308.8460998535156)"/>
<path d="M0 0 C0.85369675 -0.0071553 1.70739349 -0.01431061 2.58695984 -0.02168274 C3.52052307 -0.02437164 4.4540863 -0.02706055 5.41593933 -0.02983093 C6.40160385 -0.03640213 7.38726837 -0.04297333 8.40280151 -0.04974365 C11.66914443 -0.0694768 14.93544139 -0.08113868 18.201828 -0.09111023 C19.87444985 -0.09722352 19.87444985 -0.09722352 21.58086205 -0.10346031 C27.48161509 -0.12432006 33.38234488 -0.13862281 39.28312683 -0.147995 C45.37974874 -0.15906554 51.47600627 -0.1934735 57.57249928 -0.23316669 C62.25910118 -0.25930038 66.94561579 -0.26768391 71.63228416 -0.27127647 C73.87975719 -0.27614998 76.12722613 -0.2877856 78.37462807 -0.30631447 C81.52020363 -0.33063851 84.66482993 -0.32975302 87.81047058 -0.32279968 C88.73796112 -0.33560974 89.66545166 -0.3484198 90.62104797 -0.36161804 C96.32253112 -0.31569822 99.42746191 0.42120659 103.80729675 4.14717102 C105.81272641 7.01612846 106.0736994 9.1341832 105.74479675 12.58467102 C105.69194519 13.32588196 105.63909363 14.0670929 105.5846405 14.83076477 C104.38740635 18.39840222 102.78912016 19.83640218 99.80729675 22.14717102 C96.40342893 22.88545273 93.06052897 22.8203269 89.58854675 22.77827454 C88.04868103 22.78900749 88.04868103 22.78900749 86.47770691 22.79995728 C83.08711639 22.81685454 79.69784609 22.79743444 76.30729675 22.77607727 C73.94987376 22.77690587 71.59245083 22.77936489 69.23503113 22.78338623 C64.29540101 22.78624496 59.35622413 22.77153495 54.41667175 22.74409485 C48.08450532 22.71001265 41.75314944 22.71602997 35.42094421 22.73475742 C30.55332177 22.74532519 25.68588798 22.73639147 20.81828308 22.7213726 C18.4834906 22.71618874 16.14867844 22.71667506 13.81388855 22.72291756 C10.55084356 22.7283668 7.28895949 22.70800235 4.02604675 22.68061829 C3.06070007 22.68714417 2.09535339 22.69367004 1.10075378 22.70039368 C-3.18971722 22.6391587 -5.55525674 22.54261867 -9.26887512 20.23883057 C-12.66627013 16.54505272 -12.58335037 13.50023271 -12.548172 8.63154602 C-12.19270325 6.14717102 -12.19270325 6.14717102 -9.88020325 3.08467102 C-6.49476172 0.64400387 -4.06791399 0.02344063 0 0 Z " fill="#000000" transform="translate(76.19270324707031,393.8528289794922)"/>
<path d="M0 0 C0.88742386 -0.00860046 1.77484772 -0.01720093 2.68916321 -0.02606201 C3.66529572 -0.03032196 4.64142822 -0.03458191 5.6471405 -0.03897095 C7.18634911 -0.05123718 7.18634911 -0.05123718 8.75665283 -0.06375122 C12.1630952 -0.08862805 15.56949586 -0.10512634 18.97599792 -0.11953735 C20.71806298 -0.12752287 20.71806298 -0.12752287 22.49532127 -0.13566971 C28.64129858 -0.16241009 34.7872555 -0.18178296 40.93327332 -0.19619751 C47.28904756 -0.2128556 53.64430431 -0.25764123 59.9998827 -0.30856895 C64.88031629 -0.34218367 69.76062614 -0.35376861 74.64116478 -0.35942459 C76.98437649 -0.36615205 79.32757964 -0.38141258 81.67067909 -0.4053154 C84.94842145 -0.43684728 88.22475577 -0.43702128 91.50260925 -0.42959595 C92.95769897 -0.45420395 92.95769897 -0.45420395 94.44218445 -0.47930908 C99.07387889 -0.43630274 101.09681408 -0.36753372 104.8576355 2.54998779 C107.65592145 6.36224778 108.19660189 9.48280775 107.76896667 14.15390015 C105.74179176 18.28333053 104.00399632 20.44801756 99.76896667 22.15390015 C97.69777012 22.40837574 97.69777012 22.40837574 95.44927979 22.41459656 C94.59276321 22.42168137 93.73624664 22.42876617 92.85377502 22.43606567 C91.92223602 22.43358826 90.99069702 22.43111084 90.03092957 22.42855835 C89.04351273 22.43366928 88.05609589 22.43878021 87.03875732 22.44404602 C83.7729843 22.45795223 80.50742205 22.45698449 77.24162292 22.4546814 C74.972452 22.45856768 72.7032818 22.46290221 70.43411255 22.46766663 C65.67697288 22.475131 60.91990743 22.4748359 56.1627655 22.46957397 C50.06499925 22.4637783 43.96753664 22.48071189 37.86982059 22.50391865 C33.18325014 22.5186463 28.49675299 22.51952901 23.8101635 22.51640892 C21.56188289 22.51692259 19.31359823 22.5221689 17.06534004 22.53222084 C13.92215838 22.54454925 10.77957038 22.53781491 7.63639832 22.5262146 C6.70688354 22.53385834 5.77736877 22.54150208 4.81968689 22.54937744 C-0.05003593 22.50962845 -3.25006247 22.27336011 -7.23103333 19.15390015 C-7.82013489 18.69757202 -8.40923645 18.2412439 -9.01618958 17.77108765 C-11.14494901 14.937305 -10.6890902 12.0200295 -10.59431458 8.6031189 C-10.08946347 5.19944531 -8.74421825 3.44533346 -6.23103333 1.15390015 C-3.91784196 -0.00269554 -2.57518097 0.0185554 0 0 Z " fill="#000000" transform="translate(74.23103332519531,351.8460998535156)"/>
</svg>
